<?xml version="1.0" standalone="no"?>
<!DOCTYPE svg PUBLIC "-//W3C//DTD SVG 20010904//EN"
 "http://www.w3.org/TR/2001/REC-SVG-20010904/DTD/svg10.dtd">
<svg version="1.0" xmlns="http://www.w3.org/2000/svg"
 width="512.000000pt" height="512.000000pt" viewBox="0 0 512.000000 512.000000"
 preserveAspectRatio="xMidYMid meet">

<g transform="translate(0.000000,512.000000) scale(0.100000,-0.100000)"
fill="#000000" stroke="none">
<path d="M4033 5106 c-127 -31 -253 -127 -307 -234 -46 -91 -56 -151 -56 -342
l0 -175 -235 -235 -235 -235 343 -343 342 -342 235 235 235 235 175 0 c126 0
193 4 235 15 253 66 402 321 340 583 -40 170 -161 295 -334 346 -30 9 -69 16
-86 16 -17 0 -36 5 -43 12 -7 7 -12 26 -12 43 0 45 -27 131 -63 198 -35 67
-118 147 -188 183 -100 50 -237 66 -346 40z"/>
<path d="M2700 3748 c-179 -171 -367 -280 -580 -335 -77 -20 -135 -26 -302
-33 -115 -5 -250 -16 -300 -25 -549 -89 -1049 -455 -1321 -965 -300 -564 -254
-1266 118 -1761 85 -114 260 -281 375 -357 544 -364 1266 -361 1835 5 226 146
447 372 592 603 123 198 209 433 243 661 6 42 15 168 20 280 10 227 25 306 86
458 62 156 142 272 311 452 l76 80 -519 520 c-285 285 -521 519 -524 519 -3
-1 -52 -46 -110 -102z m-1340 -1448 l0 -150 -150 0 -150 0 0 150 0 150 150 0
150 0 0 -150z m-450 -450 l0 -150 -150 0 -150 0 0 150 0 150 150 0 150 0 0
-150z m550 -100 l0 -150 -150 0 -150 0 0 150 0 150 150 0 150 0 0 -150z"/>
</g>
</svg>
